<svg xmlns="http://www.w3.org/2000/svg" data-name="Layer 1" viewBox="0 0 250 312.5" x="0px" y="0px"><title>Android System</title><path d="M112.39,34.73a4.22,4.22,0,0,0-1.08.14,92.18,92.18,0,0,0,23.47,181.28h.35a91.87,91.87,0,0,0,71.32-34.22h0a3.95,3.95,0,0,0-4.33-6.23A82.47,82.47,0,0,1,176,179.9h0c-44.73,0-81.78-36.39-82.59-81.1a82.31,82.31,0,0,1,21.76-57.42,4,4,0,0,0-2.79-6.65Z"/><text x="0" y="265" fill="#000000" font-size="5px" font-weight="bold" font-family="'Helvetica Neue', Helvetica, Arial-Unicode, Arial, Sans-serif">Created by Mustofa Bayu</text><text x="0" y="270" fill="#000000" font-size="5px" font-weight="bold" font-family="'Helvetica Neue', Helvetica, Arial-Unicode, Arial, Sans-serif">from the Noun Project</text></svg>